<svg width="42" height="40" viewBox="0 0 42 40" fill="none" xmlns="http://www.w3.org/2000/svg">
<path d="M20.6369 40C32.0344 40 41.2739 31.0457 41.2739 20C41.2739 8.9543 32.0344 0 20.6369 0C9.23947 0 0 8.9543 0 20C0 31.0457 9.23947 40 20.6369 40Z" fill="white"/>
<path fill-rule="evenodd" clip-rule="evenodd" d="M12.1047 8.1017C10.3384 8.1017 9.03147 9.6 9.08997 11.2248C9.14615 12.7857 9.07316 14.8075 8.54802 16.4562C8.021 18.1095 7.1303 19.1572 5.67516 19.2917V20.81C7.1303 20.9448 8.021 21.9919 8.54796 23.6455C9.07316 25.2942 9.14609 27.3159 9.08991 28.8769C9.0314 30.5015 10.3384 32 12.1049 32H30.2034C31.9697 32 33.2764 30.5017 33.2178 28.8769C33.1617 27.3159 33.2347 25.2942 33.7599 23.6455C34.2868 21.9919 35.1754 20.9443 36.6306 20.81V19.2917C35.1755 19.1569 34.2869 18.1098 33.7599 16.4562C33.2346 14.8077 33.1617 12.7857 33.2178 11.2248C33.2764 9.6002 31.9697 8.1017 30.2034 8.1017H12.1047Z" fill="#3056D3"/>
<path d="M21.4038 11.0035C20.1101 11.0695 19.0825 11.2511 18.0003 11.6074C16.6405 12.0544 15.4757 12.6899 14.448 13.5469C12.6669 15.0284 11.6541 16.774 11.4079 18.7878C11.2972 19.6956 11.3468 20.6255 11.55 21.5045C11.9036 23.0203 12.7859 24.4922 14.0465 25.6655C15.6806 27.1869 18.0036 28.1965 20.5596 28.4978C21.9177 28.6587 23.5765 28.6285 25.1031 28.4152C25.9953 28.2914 26.7884 28.1154 28.0788 27.7564C29.5145 27.3574 30.1209 27.1387 30.4877 26.887L30.6149 26.7976V22.3972V17.9968H26.0267L21.4108 18V18.5842C21.4108 18.66 21.4108 18.6751 21.4108 18.7775C21.4108 19.1454 21.4108 19.5 21.4108 19.5C21.4108 19.7124 21.4108 20.2799 21.4108 20.5C21.4108 20.7215 21.4108 21.0988 21.4108 21.3671C21.4108 21.6339 21.4108 21.8676 21.4108 21.8745C21.4108 21.8814 21.3757 21.8745 22.3539 21.9034H24.9313V22.88V23.8567L24.8917 23.869C24.733 23.9199 23.783 24.0616 22.9982 24.1524C22.7322 24.184 22.2531 24.1937 21.9705 24.1744C20.9594 24.1043 20.1151 23.8608 19.2807 23.3959C18.5505 22.9887 18.0135 22.4894 17.6467 21.8745C17.3047 21.3036 17.1411 20.7314 17.0982 19.9652C17.0453 18.9886 17.3295 18.1357 17.9854 17.3063C18.6694 16.4383 19.7285 15.7602 20.8024 15.5002C21.2403 15.3943 21.574 15.3626 22.1225 15.3736C22.7867 15.3874 23.2923 15.4575 23.9218 15.6226C24.6719 15.8207 25.1742 16.0325 25.7491 16.3957C26.0499 16.5855 26.1424 16.6598 26.643 17.1137L26.7091 17.1742L28.4224 15.3901C29.3642 14.408 30.1308 13.5992 30.1259 13.5937C30.1093 13.5703 29.5162 13.1521 29.3262 13.0297C28.2539 12.3378 27.1948 11.8646 25.9392 11.518C24.9957 11.2566 24.0655 11.1039 22.9652 11.0296C22.6661 11.009 21.6302 10.9925 21.4038 11.0035Z" fill="white"/>
</svg>
